<?xml version="1.0" encoding="UTF-8" standalone="no"?>
<!DOCTYPE svg PUBLIC "-//W3C//DTD SVG 1.1//EN" "http://www.w3.org/Graphics/SVG/1.1/DTD/svg11.dtd">
<svg width="100%" height="100%" viewBox="0 0 398 217" version="1.1" xmlns="http://www.w3.org/2000/svg" xmlns:xlink="http://www.w3.org/1999/xlink" xml:space="preserve" xmlns:serif="http://www.serif.com/" style="fill-rule:evenodd;clip-rule:evenodd;stroke-linejoin:round;stroke-miterlimit:2;">
    <g transform="matrix(1,0,0,1,-73,-86)">
        <g transform="matrix(0.805016,0,4.4893e-33,0.582781,-86.6886,-70.994)">
            <path d="M313.913,370.976L313.913,640.65L199.391,640.65L199.391,270.027L367.382,270.027C398.341,270.027 423.475,304.746 423.475,347.51C423.475,390.273 398.341,424.992 367.382,424.992C342.345,424.992 321.116,402.283 313.913,370.976ZM513.031,417.038C505.56,422.13 497.152,424.992 488.263,424.992C457.305,424.992 432.171,390.273 432.171,347.51C432.171,304.746 457.305,270.027 488.263,270.027C490.045,270.027 491.807,270.142 493.546,270.367L493.546,270.027L666.429,270.027L598.921,504.375C608.737,492.727 621.499,485.684 635.442,485.684C666.401,485.684 691.535,520.403 691.535,563.167C691.535,605.931 666.401,640.65 635.442,640.65L448.616,640.65L513.031,417.038Z" style="fill:white;"/>
        </g>
    </g>
</svg>
